<?xml version="1.0" encoding="utf-8"?>
<svg viewBox="0 0 24 24" xmlns="http://www.w3.org/2000/svg">
  <symbol id="github">
    <path fill="currentColor" d="M20.9992 5.95846C21.0087 6.565 20.9333 7.32649 20.8658 7.8807C20.8395 8.09686 20.8037 8.27676 20.7653 8.42453C21.6227 10.01 22 11.9174 22 14C22 16.4684 20.8127 18.501 18.9638 19.8871C17.1319 21.2605 14.6606 22 12 22C9.33939 22 6.86809 21.2605 5.0362 19.8871C3.18727 18.501 2 16.4684 2 14C2 11.9174 2.37732 10.01 3.23472 8.42452C3.19631 8.27676 3.16055 8.09685 3.13422 7.8807C3.06673 7.32649 2.99133 6.565 3.00081 5.95846C3.01149 5.27506 3.10082 4.5917 3.19988 3.91379C3.24569 3.60028 3.31843 3.30547 3.65883 3.11917C4.00655 2.92886 4.37274 2.99981 4.73398 3.1021C5.95247 3.44713 7.09487 3.93108 8.16803 4.51287C9.2995 4.17287 10.5783 4 12 4C13.4217 4 14.7005 4.17287 15.832 4.51287C16.9051 3.93108 18.0475 3.44713 19.266 3.1021C19.6273 2.99981 19.9935 2.92886 20.3412 3.11917C20.6816 3.30547 20.7543 3.60028 20.8001 3.91379C20.8992 4.5917 20.9885 5.27506 20.9992 5.95846ZM20 14C20 12.3128 19.6122 10 17.5 10C16.5478 10 15.6474 10.2502 14.7474 10.5004C13.8482 10.7502 12.9495 11 12 11C11.0505 11 10.1518 10.7502 9.25263 10.5004C8.35261 10.2502 7.45216 10 6.5 10C4.39379 10 4 12.3197 4 14C4 15.7636 4.82745 17.231 6.23588 18.2869C7.66135 19.3556 9.69005 20 12 20C14.3099 20 16.3386 19.3555 17.7641 18.2869C19.1726 17.231 20 15.7636 20 14ZM10 14.5C10 15.8807 9.32843 17 8.5 17C7.67157 17 7 15.8807 7 14.5C7 13.1193 7.67157 12 8.5 12C9.32843 12 10 13.1193 10 14.5ZM15.5 17C16.3284 17 17 15.8807 17 14.5C17 13.1193 16.3284 12 15.5 12C14.6716 12 14 13.1193 14 14.5C14 15.8807 14.6716 17 15.5 17Z"></path>
  </symbol>
  <symbol id="linkedin">
    <path fill="currentColor" d="M18.72 3.99997H5.37C5.19793 3.99191 5.02595 4.01786 4.86392 4.07635C4.70189 4.13484 4.55299 4.22471 4.42573 4.34081C4.29848 4.45692 4.19537 4.59699 4.12232 4.75299C4.04927 4.909 4.0077 5.07788 4 5.24997V18.63C4.01008 18.9901 4.15766 19.3328 4.41243 19.5875C4.6672 19.8423 5.00984 19.9899 5.37 20H18.72C19.0701 19.9844 19.4002 19.8322 19.6395 19.5761C19.8788 19.32 20.0082 18.9804 20 18.63V5.24997C20.0029 5.08247 19.9715 4.91616 19.9078 4.76122C19.8441 4.60629 19.7494 4.466 19.6295 4.34895C19.5097 4.23191 19.3672 4.14059 19.2108 4.08058C19.0544 4.02057 18.8874 3.99314 18.72 3.99997ZM9 17.34H6.67V10.21H9V17.34ZM7.89 9.12997C7.72741 9.13564 7.5654 9.10762 7.41416 9.04768C7.26291 8.98774 7.12569 8.89717 7.01113 8.78166C6.89656 8.66615 6.80711 8.5282 6.74841 8.37647C6.6897 8.22474 6.66301 8.06251 6.67 7.89997C6.66281 7.73567 6.69004 7.57169 6.74995 7.41854C6.80986 7.26538 6.90112 7.12644 7.01787 7.01063C7.13463 6.89481 7.2743 6.80468 7.42793 6.74602C7.58157 6.68735 7.74577 6.66145 7.91 6.66997C8.07259 6.66431 8.2346 6.69232 8.38584 6.75226C8.53709 6.8122 8.67431 6.90277 8.78887 7.01828C8.90344 7.13379 8.99289 7.27174 9.05159 7.42347C9.1103 7.5752 9.13699 7.73743 9.13 7.89997C9.13719 8.06427 9.10996 8.22825 9.05005 8.3814C8.99014 8.53456 8.89888 8.6735 8.78213 8.78931C8.66537 8.90513 8.5257 8.99526 8.37207 9.05392C8.21843 9.11259 8.05423 9.13849 7.89 9.12997ZM17.34 17.34H15V13.44C15 12.51 14.67 11.87 13.84 11.87C13.5822 11.8722 13.3313 11.9541 13.1219 12.1045C12.9124 12.2549 12.7546 12.4664 12.67 12.71C12.605 12.8926 12.5778 13.0865 12.59 13.28V17.34H10.29V10.21H12.59V11.21C12.7945 10.8343 13.0988 10.5225 13.4694 10.3089C13.84 10.0954 14.2624 9.98848 14.69 9.99997C16.2 9.99997 17.34 11 17.34 13.13V17.34Z"></path>
  </symbol>
  <symbol id="email">
    <path d="M16 12C16 14.2091 14.2091 16 12 16C9.79086 16 8 14.2091 8 12C8 9.79086 9.79086 8 12 8C14.2091 8 16 9.79086 16 12ZM16 12V13.5C16 14.8807 17.1193 16 18.5 16V16C19.8807 16 21 14.8807 21 13.5V12C21 7.02944 16.9706 3 12 3C7.02944 3 3 7.02944 3 12C3 16.9706 7.02944 21 12 21H16" stroke="currentColor" stroke-width="2" stroke-linecap="round" stroke-linejoin="round"/>
  </symbol>
  <symbol id="download">
    <path d="M13.5 3H12H8C6.34315 3 5 4.34315 5 6V18C5 19.6569 6.34315 21 8 21H12M13.5 3L19 8.625M13.5 3V7.625C13.5 8.17728 13.9477 8.625 14.5 8.625H19M19 8.625V11.8125" stroke="currentColor" stroke-width="2" stroke-linecap="round" stroke-linejoin="round"/>
    <path d="M17.5 15V21M17.5 21L15 18.5M17.5 21L20 18.5" stroke="currentColor" stroke-width="2" stroke-linecap="round" stroke-linejoin="round"/>
  </symbol>
</svg>